<?xml version="1.0" standalone="no"?>
<!DOCTYPE svg PUBLIC "-//W3C//DTD SVG 20010904//EN"
 "http://www.w3.org/TR/2001/REC-SVG-20010904/DTD/svg10.dtd">
<svg version="1.0" xmlns="http://www.w3.org/2000/svg"
 width="5936.000000pt" height="4000.000000pt" viewBox="0 0 5936.000000 4000.000000"
 preserveAspectRatio="xMidYMid meet">
<metadata>
Created by potrace 1.15, written by Peter Selinger 2001-2017
</metadata>
<g transform="translate(0.000000,4000.000000) scale(0.100000,-0.100000)"
fill="#000000" stroke="none">
<path d="M7504 22908 c-24 -11 -44 -48 -44 -81 0 -12 32 -80 71 -152 643
-1173 1636 -2964 1651 -2977 26 -23 89 -23 118 0 20 16 32 76 126 636 56 339
104 621 106 626 2 5 174 -126 382 -290 209 -165 395 -305 414 -311 48 -16 131
-14 174 4 19 8 51 32 72 53 75 77 83 211 18 294 -16 19 -196 168 -401 329
-295 233 -369 296 -354 302 10 4 270 113 578 243 340 143 567 244 578 257 19
23 23 80 7 108 -5 10 -22 23 -37 29 -15 6 -543 153 -1173 327 -630 174 -1388
383 -1686 466 -297 82 -549 149 -560 148 -10 0 -29 -5 -40 -11z"/>
<path d="M50650 20355 l0 -1825 240 0 240 0 0 1825 0 1825 -240 0 -240 0 0
-1825z"/>
<path d="M52630 21920 l0 -260 240 0 240 0 0 260 0 260 -240 0 -240 0 0 -260z"/>
<path d="M51580 21500 l0 -330 -165 0 -165 0 0 -185 0 -185 165 0 164 0 4
-917 c3 -836 5 -925 21 -993 48 -203 156 -320 339 -366 91 -24 432 -27 540 -5
l67 13 0 178 0 178 -158 -5 c-144 -5 -162 -4 -204 15 -55 24 -89 75 -114 172
-15 58 -18 156 -21 898 l-5 832 216 0 216 0 0 185 0 185 -215 0 -215 0 0 330
0 330 -235 0 -235 0 0 -330z"/>
<path d="M39456 21230 c-562 -71 -929 -439 -1038 -1039 -30 -166 -30 -504 0
-672 115 -639 513 -1004 1137 -1045 126 -8 310 10 435 42 112 30 257 96 344
158 132 94 250 250 307 406 28 77 59 201 59 236 0 12 -39 14 -245 14 l-244 0
-6 -37 c-27 -178 -115 -299 -270 -373 -110 -52 -170 -65 -305 -64 -204 1 -343
56 -475 189 -93 93 -150 187 -194 320 -50 153 -62 226 -68 435 -7 233 9 369
63 530 49 146 103 239 199 336 65 66 96 89 165 122 313 150 710 54 834 -201
15 -30 34 -91 43 -136 l16 -81 244 0 243 0 0 24 c0 45 -48 214 -83 289 -162
349 -484 539 -937 552 -85 2 -186 0 -224 -5z"/>
<path d="M41706 21230 c-562 -71 -929 -439 -1038 -1039 -30 -166 -30 -504 0
-672 103 -573 429 -922 958 -1025 123 -24 395 -24 518 0 254 49 449 147 607
305 130 131 225 289 290 482 112 334 113 807 4 1145 -65 197 -164 361 -298
491 -163 158 -331 245 -570 294 -115 23 -358 33 -471 19z m403 -406 c240 -79
399 -273 476 -578 59 -234 59 -548 0 -782 -68 -268 -197 -447 -389 -539 -121
-57 -178 -70 -316 -69 -204 1 -343 56 -475 189 -93 93 -150 187 -194 320 -50
153 -62 226 -68 435 -7 233 9 369 63 530 49 146 103 239 199 336 65 66 96 89
165 122 118 57 199 73 340 68 92 -3 132 -10 199 -32z"/>
<path d="M44457 21230 c-202 -32 -381 -126 -549 -288 l-88 -85 0 157 0 156
-240 0 -240 0 0 -1320 0 -1320 240 0 240 0 0 948 0 949 98 96 c126 126 195
177 317 237 127 62 234 85 353 76 236 -18 354 -121 408 -356 16 -68 18 -167
21 -1012 l4 -938 240 0 240 0 -4 973 c-3 944 -4 975 -25 1067 -83 377 -268
570 -617 646 -84 19 -318 27 -398 14z"/>
<path d="M46546 21230 c-189 -24 -384 -95 -508 -186 -77 -57 -173 -168 -216
-252 -60 -115 -76 -185 -75 -332 0 -241 61 -386 208 -497 126 -95 273 -151
665 -253 579 -151 697 -198 753 -303 19 -35 22 -58 22 -142 0 -90 -3 -106 -28
-155 -74 -145 -223 -228 -450 -252 -121 -13 -293 -1 -402 28 -202 54 -321 180
-348 371 l-11 73 -238 0 -238 0 0 -29 c0 -50 30 -190 57 -264 108 -303 360
-482 767 -544 156 -23 448 -23 580 1 251 45 441 140 583 290 131 137 200 295
210 480 14 252 -61 451 -216 571 -143 109 -314 175 -762 290 -438 113 -588
168 -639 233 -47 59 -52 200 -11 280 47 92 154 164 296 199 52 13 112 17 230
17 137 0 172 -3 243 -23 169 -48 261 -138 292 -283 l11 -58 236 0 236 0 -6 73
c-22 253 -145 436 -367 546 -109 53 -235 91 -376 111 -104 15 -410 21 -498 10z"/>
<path d="M54607 21230 c-202 -32 -381 -126 -549 -288 l-88 -85 0 157 0 156
-240 0 -240 0 0 -1320 0 -1320 240 0 240 0 0 948 0 949 98 96 c126 126 195
177 317 237 127 62 234 85 353 76 236 -18 354 -121 408 -356 16 -68 18 -167
21 -1012 l4 -938 240 0 240 0 -4 973 c-3 944 -4 975 -25 1067 -83 377 -268
570 -617 646 -84 19 -318 27 -398 14z"/>
<path d="M56826 21229 c-464 -68 -815 -442 -925 -987 -45 -217 -50 -500 -15
-741 66 -453 284 -789 607 -936 211 -96 523 -119 735 -53 144 44 320 155 425
267 l47 50 0 -137 c0 -499 -150 -761 -475 -828 -105 -22 -323 -22 -424 0 -212
45 -336 168 -349 346 l-5 70 -250 0 -250 0 6 -82 c13 -193 110 -378 256 -495
118 -93 277 -163 468 -203 127 -27 406 -38 552 -21 473 55 757 290 885 733 62
213 60 166 63 1626 l4 1332 -240 0 -240 0 -3 -90 -3 -90 -66 48 c-138 100
-287 161 -464 187 -108 16 -245 18 -339 4z m419 -404 c142 -41 253 -105 398
-228 l57 -49 0 -628 0 -627 -83 -99 c-256 -307 -590 -420 -862 -290 -198 94
-310 269 -372 581 -14 73 -18 141 -18 350 0 282 14 389 69 553 62 181 180 339
303 405 136 73 327 85 508 32z"/>
<path d="M48113 20193 c4 -1057 2 -1022 58 -1193 103 -312 330 -481 698 -520
324 -34 597 61 838 293 l83 80 0 -162 0 -161 240 0 240 0 0 1320 0 1320 -240
0 -240 0 0 -944 0 -943 -86 -92 c-134 -142 -251 -224 -389 -274 -172 -61 -363
-58 -498 10 -99 49 -168 151 -204 299 -15 61 -17 175 -20 1007 l-4 937 -240 0
-240 0 4 -977z"/>
<path d="M52630 19850 l0 -1320 240 0 240 0 0 1320 0 1320 -240 0 -240 0 0
-1320z"/>
</g>
</svg>
